<svg width="608" height="670" viewBox="0 0 608 670" fill="none" xmlns="http://www.w3.org/2000/svg">
<path d="M0 81C0 67.7452 10.7452 57 24 57H56V572H24C10.7452 572 0 561.255 0 548V81Z" fill="#424554"/>
<path d="M19 98L28 91L37 98V109C37 109.53 36.7893 110.039 36.4142 110.414C36.0391 110.789 35.5304 111 35 111H21C20.4696 111 19.9609 110.789 19.5858 110.414C19.2107 110.039 19 109.53 19 109V98Z" stroke="#8B91A0" stroke-width="2" stroke-linecap="round" stroke-linejoin="round"/>
<path d="M25 111V101H31V111" stroke="#8B91A0" stroke-width="2" stroke-linecap="round" stroke-linejoin="round"/>
<path d="M19 140V158H37" stroke="#8B91A0" stroke-width="2" stroke-linecap="round" stroke-linejoin="round"/>
<path d="M34 154V146" stroke="#8B91A0" stroke-width="2" stroke-linecap="round" stroke-linejoin="round"/>
<path d="M29 154V142" stroke="#8B91A0" stroke-width="2" stroke-linecap="round" stroke-linejoin="round"/>
<path d="M24 154V151" stroke="#8B91A0" stroke-width="2" stroke-linecap="round" stroke-linejoin="round"/>
<path d="M24 180H23C22.4696 180 21.9609 180.211 21.5858 180.586C21.2107 180.961 21 181.47 21 182V187C21 187.53 20.7893 188.039 20.4142 188.414C20.0391 188.789 19.5304 189 19 189C19.5304 189 20.0391 189.211 20.4142 189.586C20.7893 189.961 21 190.47 21 191V196C21 197.1 21.9 198 23 198H24" stroke="#8B91A0" stroke-width="2" stroke-linecap="round" stroke-linejoin="round"/>
<path d="M32 198H33C33.5304 198 34.0391 197.789 34.4142 197.414C34.7893 197.039 35 196.53 35 196V191C35 189.9 35.9 189 37 189C36.4696 189 35.9609 188.789 35.5858 188.414C35.2107 188.039 35 187.53 35 187V182C35 181.47 34.7893 180.961 34.4142 180.586C34.0391 180.211 33.5304 180 33 180H32" stroke="#8B91A0" stroke-width="2" stroke-linecap="round" stroke-linejoin="round"/>
<path d="M18 220H24C25.0609 220 26.0783 220.421 26.8284 221.172C27.5786 221.922 28 222.939 28 224V238C28 237.204 27.6839 236.441 27.1213 235.879C26.5587 235.316 25.7956 235 25 235H18V220Z" stroke="#8B91A0" stroke-width="2" stroke-linecap="round" stroke-linejoin="round"/>
<path d="M38 220H32C30.9391 220 29.9217 220.421 29.1716 221.172C28.4214 221.922 28 222.939 28 224V238C28 237.204 28.3161 236.441 28.8787 235.879C29.4413 235.316 30.2044 235 31 235H38V220Z" stroke="#8B91A0" stroke-width="2" stroke-linecap="round" stroke-linejoin="round"/>
<path d="M56 57H467C480.255 57 491 67.7452 491 81V548C491 561.255 480.255 572 467 572H56V57Z" fill="white"/>
<rect x="66.5" y="67.5" width="184" height="35" rx="11.5" stroke="#ABAFB9"/>
<path d="M83.3333 89.6667C86.2789 89.6667 88.6667 87.2789 88.6667 84.3333C88.6667 81.3878 86.2789 79 83.3333 79C80.3878 79 78 81.3878 78 84.3333C78 87.2789 80.3878 89.6667 83.3333 89.6667Z" stroke="#ABAFB9" stroke-width="2" stroke-linecap="round" stroke-linejoin="round"/>
<path d="M90 91L87.1334 88.1333" stroke="#ABAFB9" stroke-width="2" stroke-linecap="round" stroke-linejoin="round"/>
<path d="M107.83 82.9545C107.778 82.5227 107.571 82.1875 107.207 81.9489C106.844 81.7102 106.398 81.5909 105.869 81.5909C105.483 81.5909 105.145 81.6534 104.855 81.7784C104.568 81.9034 104.344 82.0753 104.182 82.294C104.023 82.5128 103.943 82.7614 103.943 83.0398C103.943 83.2727 103.999 83.473 104.109 83.6406C104.223 83.8054 104.368 83.9432 104.544 84.054C104.72 84.1619 104.905 84.2514 105.098 84.3224C105.291 84.3906 105.469 84.446 105.631 84.4886L106.517 84.7273C106.744 84.7869 106.997 84.8693 107.276 84.9744C107.557 85.0795 107.825 85.223 108.081 85.4048C108.339 85.5838 108.553 85.8139 108.72 86.0952C108.888 86.3764 108.972 86.7216 108.972 87.1307C108.972 87.6023 108.848 88.0284 108.601 88.4091C108.357 88.7898 107.999 89.0923 107.527 89.3168C107.058 89.5412 106.489 89.6534 105.818 89.6534C105.193 89.6534 104.652 89.5526 104.195 89.3509C103.74 89.1491 103.382 88.8679 103.121 88.5071C102.862 88.1463 102.716 87.7273 102.682 87.25H103.773C103.801 87.5795 103.912 87.8523 104.105 88.0682C104.301 88.2812 104.548 88.4403 104.847 88.5455C105.148 88.6477 105.472 88.6989 105.818 88.6989C106.222 88.6989 106.584 88.6335 106.905 88.5028C107.226 88.3693 107.48 88.1847 107.668 87.9489C107.855 87.7102 107.949 87.4318 107.949 87.1136C107.949 86.8239 107.868 86.5881 107.706 86.4062C107.544 86.2244 107.331 86.0767 107.067 85.9631C106.803 85.8494 106.517 85.75 106.21 85.6648L105.136 85.358C104.455 85.1619 103.915 84.8821 103.517 84.5185C103.119 84.1548 102.92 83.679 102.92 83.0909C102.92 82.6023 103.053 82.1761 103.317 81.8125C103.584 81.446 103.942 81.1619 104.391 80.9602C104.842 80.7557 105.347 80.6534 105.903 80.6534C106.466 80.6534 106.966 80.7543 107.403 80.956C107.841 81.1548 108.188 81.4276 108.443 81.7741C108.702 82.1207 108.838 82.5142 108.852 82.9545H107.83ZM113.317 89.6364C112.686 89.6364 112.142 89.4972 111.685 89.2188C111.23 88.9375 110.88 88.5455 110.632 88.0426C110.388 87.5369 110.266 86.9489 110.266 86.2784C110.266 85.608 110.388 85.017 110.632 84.5057C110.88 83.9915 111.223 83.5909 111.664 83.304C112.107 83.0142 112.624 82.8693 113.215 82.8693C113.556 82.8693 113.892 82.9261 114.225 83.0398C114.557 83.1534 114.86 83.3381 115.132 83.5938C115.405 83.8466 115.623 84.1818 115.784 84.5994C115.946 85.017 116.027 85.5312 116.027 86.142V86.5682H110.982V85.6989H115.005C115.005 85.3295 114.931 85 114.783 84.7102C114.638 84.4205 114.431 84.1918 114.161 84.0241C113.894 83.8565 113.578 83.7727 113.215 83.7727C112.814 83.7727 112.468 83.8722 112.175 84.071C111.885 84.267 111.662 84.5227 111.506 84.8381C111.35 85.1534 111.272 85.4915 111.272 85.8523V86.4318C111.272 86.9261 111.357 87.3452 111.527 87.6889C111.701 88.0298 111.941 88.2898 112.248 88.4688C112.554 88.6449 112.911 88.733 113.317 88.733C113.581 88.733 113.82 88.696 114.033 88.6222C114.249 88.5455 114.435 88.4318 114.591 88.2812C114.748 88.1278 114.868 87.9375 114.953 87.7102L115.925 87.983C115.823 88.3125 115.651 88.6023 115.409 88.8523C115.168 89.0994 114.87 89.2926 114.515 89.4318C114.159 89.5682 113.76 89.6364 113.317 89.6364ZM119.483 89.6534C119.069 89.6534 118.692 89.5753 118.354 89.419C118.016 89.2599 117.748 89.0312 117.549 88.733C117.35 88.4318 117.25 88.0682 117.25 87.642C117.25 87.267 117.324 86.9631 117.472 86.7301C117.62 86.4943 117.817 86.3097 118.064 86.1761C118.311 86.0426 118.584 85.9432 118.882 85.8778C119.184 85.8097 119.486 85.7557 119.79 85.7159C120.188 85.6648 120.51 85.6264 120.757 85.6009C121.007 85.5724 121.189 85.5256 121.303 85.4602C121.419 85.3949 121.478 85.2812 121.478 85.1193V85.0852C121.478 84.6648 121.363 84.3381 121.132 84.1051C120.905 83.8722 120.56 83.7557 120.097 83.7557C119.617 83.7557 119.24 83.8608 118.968 84.071C118.695 84.2812 118.503 84.5057 118.392 84.7443L117.438 84.4034C117.608 84.0057 117.836 83.696 118.12 83.4744C118.407 83.25 118.719 83.0937 119.057 83.0057C119.398 82.9148 119.733 82.8693 120.063 82.8693C120.273 82.8693 120.515 82.8949 120.787 82.946C121.063 82.9943 121.328 83.0952 121.584 83.2486C121.843 83.402 122.057 83.6335 122.228 83.9432C122.398 84.2528 122.483 84.6676 122.483 85.1875V89.5H121.478V88.6136H121.426C121.358 88.7557 121.245 88.9077 121.086 89.0696C120.926 89.2315 120.715 89.3693 120.451 89.483C120.186 89.5966 119.864 89.6534 119.483 89.6534ZM119.637 88.75C120.034 88.75 120.37 88.6719 120.642 88.5156C120.918 88.3594 121.125 88.1577 121.265 87.9105C121.407 87.6634 121.478 87.4034 121.478 87.1307V86.2102C121.435 86.2614 121.341 86.3082 121.196 86.3509C121.054 86.3906 120.89 86.4261 120.702 86.4574C120.517 86.4858 120.337 86.5114 120.161 86.5341C119.988 86.554 119.847 86.571 119.739 86.5852C119.478 86.6193 119.233 86.6747 119.006 86.7514C118.782 86.8253 118.6 86.9375 118.461 87.0881C118.324 87.2358 118.256 87.4375 118.256 87.6932C118.256 88.0426 118.385 88.3068 118.644 88.4858C118.905 88.6619 119.236 88.75 119.637 88.75ZM124.319 89.5V82.9545H125.29V83.9432H125.359C125.478 83.6193 125.694 83.3565 126.006 83.1548C126.319 82.9531 126.671 82.8523 127.063 82.8523C127.137 82.8523 127.229 82.8537 127.34 82.8565C127.451 82.8594 127.535 82.8636 127.592 82.8693V83.892C127.558 83.8835 127.479 83.8707 127.357 83.8537C127.238 83.8338 127.112 83.8239 126.978 83.8239C126.66 83.8239 126.376 83.8906 126.126 84.0241C125.879 84.1548 125.683 84.3366 125.538 84.5696C125.396 84.7997 125.325 85.0625 125.325 85.358V89.5H124.319ZM131.244 89.6364C130.63 89.6364 130.102 89.4915 129.658 89.2017C129.215 88.9119 128.874 88.5128 128.636 88.0043C128.397 87.4957 128.278 86.9148 128.278 86.2614C128.278 85.5966 128.4 85.0099 128.644 84.5014C128.891 83.9901 129.235 83.5909 129.675 83.304C130.119 83.0142 130.636 82.8693 131.227 82.8693C131.687 82.8693 132.102 82.9545 132.471 83.125C132.84 83.2955 133.143 83.5341 133.379 83.8409C133.614 84.1477 133.761 84.5057 133.817 84.9148H132.812C132.735 84.6165 132.565 84.3523 132.3 84.1222C132.039 83.8892 131.687 83.7727 131.244 83.7727C130.852 83.7727 130.508 83.875 130.212 84.0795C129.92 84.2812 129.691 84.5668 129.526 84.9361C129.364 85.3026 129.283 85.733 129.283 86.2273C129.283 86.733 129.363 87.1733 129.522 87.5483C129.684 87.9233 129.911 88.2145 130.204 88.4219C130.499 88.6293 130.846 88.733 131.244 88.733C131.505 88.733 131.742 88.6875 131.955 88.5966C132.168 88.5057 132.349 88.375 132.496 88.2045C132.644 88.0341 132.749 87.8295 132.812 87.5909H133.817C133.761 87.9773 133.62 88.3253 133.396 88.6349C133.174 88.9418 132.88 89.1861 132.513 89.3679C132.15 89.5469 131.727 89.6364 131.244 89.6364ZM136.293 85.5625V89.5H135.288V80.7727H136.293V83.9773H136.379C136.532 83.6392 136.762 83.3707 137.069 83.1719C137.379 82.9702 137.79 82.8693 138.305 82.8693C138.751 82.8693 139.141 82.9588 139.477 83.1378C139.812 83.3139 140.072 83.5852 140.256 83.9517C140.444 84.3153 140.538 84.7784 140.538 85.3409V89.5H139.532V85.4091C139.532 84.8892 139.397 84.4872 139.127 84.2031C138.86 83.9162 138.489 83.7727 138.015 83.7727C137.685 83.7727 137.39 83.8423 137.129 83.9815C136.87 84.1207 136.665 84.3239 136.515 84.5909C136.367 84.858 136.293 85.1818 136.293 85.5625Z" fill="#ABAFB9"/>
<rect x="66" y="113" width="185" height="137" rx="12" fill="#E5EAEE"/>
<path d="M149.5 175.5L155.5 172.5L161.5 175.5L167.5 172.5V187.5L161.5 190.5L155.5 187.5L149.5 190.5V175.5Z" stroke="#565656" stroke-width="2" stroke-linecap="round" stroke-linejoin="round"/>
<path d="M155.5 172.5V187.5" stroke="#565656" stroke-width="2" stroke-linecap="round" stroke-linejoin="round"/>
<path d="M161.5 175.5V190.5" stroke="#565656" stroke-width="2" stroke-linecap="round" stroke-linejoin="round"/>
<rect x="261" y="113" width="185" height="137" rx="12" fill="#E5EAEE"/>
<path d="M362.71 185.39C362.074 186.894 361.079 188.22 359.812 189.251C358.545 190.282 357.045 190.987 355.442 191.305C353.84 191.622 352.184 191.542 350.62 191.072C349.056 190.601 347.631 189.755 346.469 188.607C345.307 187.458 344.445 186.043 343.957 184.484C343.468 182.925 343.37 181.27 343.669 179.665C343.968 178.059 344.655 176.551 345.672 175.272C346.689 173.993 348.003 172.983 349.5 172.33" stroke="#565656" stroke-width="2" stroke-linecap="round" stroke-linejoin="round"/>
<path d="M363.5 181.5C363.5 180.187 363.241 178.886 362.739 177.673C362.236 176.46 361.5 175.358 360.571 174.429C359.642 173.5 358.54 172.764 357.327 172.261C356.114 171.759 354.813 171.5 353.5 171.5V181.5H363.5Z" stroke="#565656" stroke-width="2" stroke-linecap="round" stroke-linejoin="round"/>
<rect x="66" y="260" width="185" height="137" rx="12" fill="#E5EAEE"/>
<path d="M149.5 319.5V337.5H167.5" stroke="#565656" stroke-width="2" stroke-linecap="round" stroke-linejoin="round"/>
<path d="M164.5 333.5V325.5" stroke="#565656" stroke-width="2" stroke-linecap="round" stroke-linejoin="round"/>
<path d="M159.5 333.5V321.5" stroke="#565656" stroke-width="2" stroke-linecap="round" stroke-linejoin="round"/>
<path d="M154.5 333.5V330.5" stroke="#565656" stroke-width="2" stroke-linecap="round" stroke-linejoin="round"/>
<rect x="261" y="260" width="185" height="137" rx="12" fill="#E5EAEE"/>
<path d="M350.5 321.5V325.5" stroke="#565656" stroke-width="2" stroke-linecap="round" stroke-linejoin="round"/>
<path d="M351.5 325.5H349.5C348.948 325.5 348.5 325.948 348.5 326.5V330.5C348.5 331.052 348.948 331.5 349.5 331.5H351.5C352.052 331.5 352.5 331.052 352.5 330.5V326.5C352.5 325.948 352.052 325.5 351.5 325.5Z" stroke="#565656" stroke-width="2" stroke-linecap="round" stroke-linejoin="round"/>
<path d="M350.5 331.5V333.5" stroke="#565656" stroke-width="2" stroke-linecap="round" stroke-linejoin="round"/>
<path d="M358.5 319.5V321.5" stroke="#565656" stroke-width="2" stroke-linecap="round" stroke-linejoin="round"/>
<path d="M359.5 321.5H357.5C356.948 321.5 356.5 321.948 356.5 322.5V328.5C356.5 329.052 356.948 329.5 357.5 329.5H359.5C360.052 329.5 360.5 329.052 360.5 328.5V322.5C360.5 321.948 360.052 321.5 359.5 321.5Z" stroke="#565656" stroke-width="2" stroke-linecap="round" stroke-linejoin="round"/>
<path d="M358.5 329.5V332.5" stroke="#565656" stroke-width="2" stroke-linecap="round" stroke-linejoin="round"/>
<path d="M344.5 319.5V337.5H362.5" stroke="#565656" stroke-width="2" stroke-linecap="round" stroke-linejoin="round"/>
<g filter="url(#filter0_d_1_149)">
<rect x="16" y="422" width="361" height="232" rx="6" fill="white" shape-rendering="crispEdges"/>
<rect x="32" y="434" width="64" height="64" rx="12" fill="#7177F2"/>
<path d="M82.42 473.78C81.1477 476.789 79.1576 479.44 76.6238 481.503C74.09 483.565 71.0896 484.975 67.8849 485.61C64.6802 486.244 61.3689 486.084 58.2403 485.144C55.1118 484.203 52.2613 482.51 49.9381 480.213C47.6148 477.916 45.8896 475.086 44.9133 471.968C43.9369 468.85 43.7391 465.541 44.3372 462.329C44.9353 459.118 46.311 456.101 48.3441 453.544C50.3772 450.987 53.0058 448.967 56 447.66" stroke="white" stroke-width="2" stroke-linecap="round" stroke-linejoin="round"/>
<path d="M84 466C84 463.374 83.4827 460.773 82.4776 458.346C81.4725 455.92 79.9993 453.715 78.1421 451.858C76.285 450.001 74.0802 448.528 71.6537 447.522C69.2272 446.517 66.6264 446 64 446V466H84Z" stroke="white" stroke-width="2" stroke-linecap="round" stroke-linejoin="round"/>
<rect x="106" y="458" width="86" height="16" rx="8" fill="#6679D0"/>
<rect x="202" y="458" width="86" height="16" rx="8" fill="#E5EAEE"/>
<rect x="32" y="514" width="329" height="16" rx="8" fill="#E5EAEE"/>
<rect x="32" y="546" width="137" height="16" rx="8" fill="#E5EAEE"/>
<rect x="32" y="578" width="329" height="16" rx="8" fill="#E5EAEE"/>
<rect x="297" y="610" width="32" height="32" rx="16" fill="#BD6872"/>
<rect x="297" y="610" width="32" height="32" rx="16" fill="#BD6872"/>
<path d="M320 635V633C320 631.939 319.579 630.922 318.828 630.172C318.078 629.421 317.061 629 316 629H310C308.939 629 307.922 629.421 307.172 630.172C306.421 630.922 306 631.939 306 633V635" stroke="white" stroke-width="2" stroke-linecap="round" stroke-linejoin="round"/>
<path d="M313 625C315.209 625 317 623.209 317 621C317 618.791 315.209 617 313 617C310.791 617 309 618.791 309 621C309 623.209 310.791 625 313 625Z" stroke="white" stroke-width="2" stroke-linecap="round" stroke-linejoin="round"/>
<rect x="329" y="610" width="32" height="32" rx="16" fill="#E9B65A"/>
<rect x="329" y="610" width="32" height="32" rx="16" fill="#E9B65A"/>
<path d="M352 635V633C352 631.939 351.579 630.922 350.828 630.172C350.078 629.421 349.061 629 348 629H342C340.939 629 339.922 629.421 339.172 630.172C338.421 630.922 338 631.939 338 633V635" stroke="white" stroke-width="2" stroke-linecap="round" stroke-linejoin="round"/>
<path d="M345 625C347.209 625 349 623.209 349 621C349 618.791 347.209 617 345 617C342.791 617 341 618.791 341 621C341 623.209 342.791 625 345 625Z" stroke="white" stroke-width="2" stroke-linecap="round" stroke-linejoin="round"/>
</g>
<g filter="url(#filter1_d_1_149)">
<rect x="283" y="8" width="313" height="158" rx="6" fill="white" shape-rendering="crispEdges"/>
<rect x="299" y="20" width="83" height="91" rx="6" fill="#E5EAEE"/>
<rect x="398" y="20" width="83" height="91" rx="6" fill="#E5EAEE"/>
<rect x="497" y="20" width="83" height="91" rx="6" fill="#E5EAEE"/>
<rect x="299" y="127" width="281" height="27" rx="6" fill="#6679D0"/>
</g>
<defs>
<filter id="filter0_d_1_149" x="4" y="414" width="385" height="256" filterUnits="userSpaceOnUse" color-interpolation-filters="sRGB">
<feFlood flood-opacity="0" result="BackgroundImageFix"/>
<feColorMatrix in="SourceAlpha" type="matrix" values="0 0 0 0 0 0 0 0 0 0 0 0 0 0 0 0 0 0 127 0" result="hardAlpha"/>
<feOffset dy="4"/>
<feGaussianBlur stdDeviation="6"/>
<feComposite in2="hardAlpha" operator="out"/>
<feColorMatrix type="matrix" values="0 0 0 0 0 0 0 0 0 0 0 0 0 0 0 0 0 0 0.15 0"/>
<feBlend mode="normal" in2="BackgroundImageFix" result="effect1_dropShadow_1_149"/>
<feBlend mode="normal" in="SourceGraphic" in2="effect1_dropShadow_1_149" result="shape"/>
</filter>
<filter id="filter1_d_1_149" x="271" y="0" width="337" height="182" filterUnits="userSpaceOnUse" color-interpolation-filters="sRGB">
<feFlood flood-opacity="0" result="BackgroundImageFix"/>
<feColorMatrix in="SourceAlpha" type="matrix" values="0 0 0 0 0 0 0 0 0 0 0 0 0 0 0 0 0 0 127 0" result="hardAlpha"/>
<feOffset dy="4"/>
<feGaussianBlur stdDeviation="6"/>
<feComposite in2="hardAlpha" operator="out"/>
<feColorMatrix type="matrix" values="0 0 0 0 0 0 0 0 0 0 0 0 0 0 0 0 0 0 0.15 0"/>
<feBlend mode="normal" in2="BackgroundImageFix" result="effect1_dropShadow_1_149"/>
<feBlend mode="normal" in="SourceGraphic" in2="effect1_dropShadow_1_149" result="shape"/>
</filter>
</defs>
</svg>
